<svg id="Capa_1" data-name="Capa 1" xmlns="http://www.w3.org/2000/svg" viewBox="0 0 317.31 173.63"><defs><style>.cls-1{fill:#fff;}</style></defs><path class="cls-1" d="M-103.47-145.9l7.47-7.32a11.32,11.32,0,0,0,9.42,4.58c2.62,0,5.19-1,5.19-2.85,0-2.39-4.76-4.5-9.31-6.52-5.88-2.53-10.93-6.4-10.93-13.4,0-8,7.64-13.78,16.46-13.78,7.09,0,12.63,3.35,14.44,7.93l-7.12,6.86c-1.38-2.45-5-3.52-7.17-3.52-2.54,0-4.35,1.3-4.35,2.89,0,2.13,3.28,2.82,8.3,4.92C-73.81-163-69-158.61-69-151.75c0,8.85-8.24,14.35-17.55,14.35C-94.19-137.4-101.14-140.77-103.47-145.9Z" transform="translate(121.05 185.19)"/><path class="cls-1" d="M-63.72-154.92V-184.5h12.43v29.55a6.59,6.59,0,0,0,6.82,6.43c3.49,0,6.89-2.63,6.89-6.43V-184.5h12.43v29.58c0,10.66-8.65,18.18-19.29,18.18S-63.72-144.26-63.72-154.92Z" transform="translate(121.05 185.19)"/><path class="cls-1" d="M-17.45-184.5H.11c9.57,0,17.55,7.21,17.55,16.29S9.85-151.72.11-151.72H-5.11V-138H-17.45Zm23.2,16.35c0-2.83-2.36-5-5.64-5H-5.11v10l5.22,0C3.42-163,5.75-165.3,5.75-168.15Z" transform="translate(121.05 185.19)"/><path class="cls-1" d="M35.13-173v6.48H49.89v10.29H35.13v6.66H53.06V-138H22.94V-184.5H53.06V-173Z" transform="translate(121.05 185.19)"/><path class="cls-1" d="M84.77-138,72.35-158.21V-138H60L60-184.5H77.59c10,0,17.21,6.78,17.21,15.11a14,14,0,0,1-8,12.71L99.21-138ZM72.29-164.09l5,0a4.74,4.74,0,0,0,5-4.67,4.77,4.77,0,0,0-5-4.67h-5Z" transform="translate(121.05 185.19)"/><path class="cls-1" d="M-56.16-78.72v11.59H-86.28V-113.6h12.34v34.88Z" transform="translate(121.05 185.19)"/><path class="cls-1" d="M-50.89-113.6h12.34v46.47H-50.89Z" transform="translate(121.05 185.19)"/><path class="cls-1" d="M-32.88-75l7.47-7.32A11.32,11.32,0,0,0-16-77.74c2.62,0,5.19-1,5.19-2.85,0-2.4-4.76-4.5-9.31-6.52C-26-89.64-31-93.51-31-100.51c0-8,7.64-13.78,16.46-13.78,7.09,0,12.63,3.35,14.44,7.93L-7.26-99.5c-1.38-2.45-5-3.52-7.17-3.52-2.54,0-4.36,1.3-4.36,2.88,0,2.14,3.29,2.83,8.31,4.93,7.26,3.06,12.07,7.5,12.07,14.36C1.59-72-6.65-66.5-16-66.5-23.6-66.5-30.54-69.87-32.88-75Z" transform="translate(121.05 185.19)"/><path class="cls-1" d="M39.1-102.07H28v34.94H15.61v-34.94H4.45V-113.6H39.1Z" transform="translate(121.05 185.19)"/><path class="cls-1" d="M68.38-72.55H51l-2.37,5.42H35.17l21.59-47h5.85l21.62,47H70.71Zm-3.92-9-4.76-11-4.78,11Z" transform="translate(121.05 185.19)"/><circle class="cls-1" cx="24.96" cy="158.94" r="14.69"/><circle class="cls-1" cx="225.24" cy="158.94" r="14.69"/><path class="cls-1" d="M113.49-48.34H-114.78L-121-91.87a5,5,0,0,1,4.24-5.65,5,5,0,0,1,5.66,4.24l5,35H107.59c-2.12-14.85-5.59-54.09,10.85-85.41C139.55-183.95,190-176,192.09-175.65a5,5,0,0,1,4.1,5.75,5,5,0,0,1-5.75,4.1c-1.95-.31-45.45-7-63.15,26.71-18.6,35.41-9,84.27-8.9,84.76l1.21,6Z" transform="translate(121.05 185.19)"/></svg>